<svg id="Layer_1" data-name="Layer 1" xmlns="http://www.w3.org/2000/svg" viewBox="0 0 200 200"><path d="M169.25,92.86c-12.86-26.58-39-49.41-69.24-49.41S43.62,66.28,30.75,92.86a16.41,16.41,0,0,0,0,14.28C43.62,133.72,69.8,156.55,100,156.55s56.38-22.83,69.24-49.41A16.41,16.41,0,0,0,169.25,92.86Zm-10.8,9a85.27,85.27,0,0,1-24.56,30.34c-10.64,8.05-22.35,12.3-33.88,12.3s-23.26-4.25-33.89-12.3a85.19,85.19,0,0,1-24.57-30.34,4.41,4.41,0,0,1,0-3.82A85.19,85.19,0,0,1,66.12,67.75c10.63-8,22.35-12.3,33.89-12.3s23.24,4.25,33.88,12.3a85.27,85.27,0,0,1,24.56,30.34A4.41,4.41,0,0,1,158.45,101.91Z"/><path d="M100,75a25,25,0,1,0,25,25A25,25,0,0,0,100,75Zm0,38a13,13,0,1,1,13-13A13,13,0,0,1,100,113Z"/></svg>