<svg id="Layer_1" data-name="Layer 1" xmlns="http://www.w3.org/2000/svg" viewBox="0 0 200 200"><path d="M153.53,74.37l-21.83-8.6L145,59.57a6,6,0,0,0-5.08-10.88l-18.66,8.72,2-3.13c7.33-11.17-1.82-25.13-16.48-25.13H86.12c-14.65,0-23.81,14-16.48,25.13L74,61c-21.23,12.46-31.37,41.59-31.37,61.9,0,26.49,24.08,47.94,53.79,47.94s53.8-21.45,53.8-47.94c0-12.49-3.85-28.32-11.75-41.56l10.62,4.18a5.88,5.88,0,0,0,2.2.42,6,6,0,0,0,2.2-11.58Zm-73-30.45a6.26,6.26,0,0,1,5.56-2.77H106.8a6.2,6.2,0,0,1,5.55,2.77,3.6,3.6,0,0,1-.09,4.11l-5.17,7.88-.17.27a45.82,45.82,0,0,0-20.92,0l-.17-.27L80.66,48A3.58,3.58,0,0,1,80.56,43.92Zm15.9,114.93c-22.55,0-40.88-16.12-40.88-35.94A73.13,73.13,0,0,1,66.91,85.22q6.14-9.45,13.91-14A30.26,30.26,0,0,1,96.46,67a31.1,31.1,0,0,1,8.67,1.22l5.26,2.08c.58.29,1.15.6,1.72.94,5.17,3,9.82,7.71,13.9,14a73.15,73.15,0,0,1,11.34,37.69C137.35,142.73,119,158.85,96.46,158.85Z"/><path d="M109.12,91.27a17.9,17.9,0,0,0-12.66,5.22,18,18,0,0,0-25.35,25.43c.31.32.63.61,1,.9l24.39,24.39h0l24.39-24.39c.33-.29.66-.58,1-.9a18,18,0,0,0-12.7-30.65Zm4.21,22.17s-.14.14-.33.3l-.33.28-.3.31L96.46,130.24l-15.9-15.91-.31-.31-.33-.28-.33-.3A6,6,0,0,1,88,105l8.46,8.42,8.46-8.42a6,6,0,0,1,8.41,8.44Z"/></svg>