<svg id="Layer_1" data-name="Layer 1" xmlns="http://www.w3.org/2000/svg" viewBox="0 0 200 200"><path d="M100,89.85A30.37,30.37,0,1,0,69.63,59.48,30.37,30.37,0,0,0,100,89.85Zm0-48.74A18.37,18.37,0,1,1,81.63,59.48,18.39,18.39,0,0,1,100,41.11Z"/><path d="M169,141.86C157.13,117.18,130.7,100,100,100s-57.13,17.18-68.95,41.86c-6.52,13.63,4.23,29,20.15,29h97.6C164.72,170.89,175.47,155.49,169,141.86Zm-11.29,12.43a10.28,10.28,0,0,1-8.86,4.6H51.2a10.28,10.28,0,0,1-8.86-4.6,7.19,7.19,0,0,1-.46-7.24C52.07,125.76,74.89,112,100,112s47.93,13.76,58.12,35.05A7.19,7.19,0,0,1,157.66,154.29Z"/></svg>