<svg id="Layer_1" data-name="Layer 1" xmlns="http://www.w3.org/2000/svg" viewBox="0 0 419.1 277.66"><defs><style>.cls-1{fill:#fd8600;}.cls-2{fill:#583384;}</style></defs><path class="cls-1" d="M213.06,151.69,177.25,99.42a3.84,3.84,0,0,1,1-5.33h0a3.84,3.84,0,0,1,5.33,1l29.48,43,29.48-43a3.84,3.84,0,0,1,5.33-1h0a3.84,3.84,0,0,1,1,5.33Z"/><polygon class="cls-1" points="251.03 126.2 216.22 177 251.03 126.19 251.03 126.2"/><polygon class="cls-1" points="165.33 50.52 165.28 50.45 165.28 50.45 165.33 50.52"/><path class="cls-2" d="M297.3,17.89a3.84,3.84,0,0,1,.2,4.85c-3,3.93-8.64,13.21-13,30.83l-.05.18-.06.18c-2.11,6-4.87,10.33-8.43,13.27-4.72,3.88-10.83,5.31-18.16,4.26C251,70.47,245.86,66.3,243,59.4a27.29,27.29,0,0,1-1.17-17c1.69-6.73,5.2-16.56,12.37-25.11C263.25,6.45,275.44.84,290.41.59a30.58,30.58,0,0,1,17.33,4.83c5.81,3.78,13,11.39,14.35,26.15a2.58,2.58,0,0,0,.69,1.6A13.45,13.45,0,0,0,327,36l.06,0c2.14.88,8.63,3.59,10.46,9.92,1.26,4.35,0,9.21-3.66,14.47-7.08,10.08-17,12-23.59,12a30.58,30.58,0,0,1-6.74-.71c-2.55-.61-12.32-5.18-13.74-6.6l5.42-5.42a2.21,2.21,0,0,0-.43-.36c1.15.75,8.62,4.47,10.53,4.92a24.06,24.06,0,0,0,9.19.13A19.7,19.7,0,0,0,327.57,56c1.58-2.24,3.3-5.43,2.58-7.92-.81-2.81-4.62-4.39-6-5L324,43a21.06,21.06,0,0,1-6.75-4.52,10.23,10.23,0,0,1-2.84-6.26c-.85-9.39-4.51-16.26-10.89-20.42a23.1,23.1,0,0,0-13-3.58c-29.26.49-38.61,25.33-41.28,36a19.62,19.62,0,0,0,.8,12.2c1.84,4.4,4.73,6.83,8.84,7.43,9.33,1.34,14.61-2.23,18.21-12.32,4.59-18.5,10.67-28.66,14.27-33.43a3.83,3.83,0,0,1,5.92-.23Z"/><path class="cls-2" d="M305.83,34.18A4.19,4.19,0,1,0,310,38.37a4.19,4.19,0,0,0-4.19-4.19Z"/><path class="cls-2" d="M105.13,44.1a4.19,4.19,0,1,0,4.18,4.19,4.18,4.18,0,0,0-4.18-4.19Z"/><path class="cls-2" d="M227.87,97.39a3.87,3.87,0,0,1-.67,2.17l-14.14,20.63L165.33,50.52h0l-.05-.07h0a9.48,9.48,0,0,1-.65-1.27c-12-28.28-29.74-37.62-39.34-40.68a1.28,1.28,0,0,0-1.67,1.16L123.21,18a6.65,6.65,0,0,1-5.85,6.31c-7.9,1-21.08,5.27-20.6,23.36a16.51,16.51,0,0,1-.06,2,7.49,7.49,0,0,1-2.47,5.51c-.19.18-.39.34-.6.51a4,4,0,0,0-1.5,1.79c-.31,1.09.39,2.91,1.91,5,.23.26.45.53.68.82,2.29,2.81,7,8.67,25.82,4.06l11.61-3,1.93,7.42-11.68,3a60,60,0,0,1-14.12,1.92c-12.54,0-17.21-5.76-19.51-8.6l-.55-.66-.13-.14L88,67.18c-3.15-4.24-4.24-8.2-3.23-11.78a11.15,11.15,0,0,1,4.1-5.71l.15-.11c0-.12,0-.31.07-.61a8.05,8.05,0,0,0,0-1.12c-.35-13.55,5.69-21,10.83-24.86a35,35,0,0,1,15.67-6.21L116.12,6A6.31,6.31,0,0,1,123.84.16a57.92,57.92,0,0,1,21.83,10.71C156,18.81,164.44,30,170.77,44.1a29.09,29.09,0,0,0,2.44,4.36l39.85,58.16,7.81-11.4a3.84,3.84,0,0,1,7,2.17Z"/><path class="cls-2" d="M295.9,53.93a3.83,3.83,0,0,1,1,5.33l-36.05,52.62L251,126.19,216.22,177l-3.16,4.62L209.9,177l-34.81-50.8L151.42,91.65a3.83,3.83,0,0,1,1-5.33h0a3.84,3.84,0,0,1,5.33,1l42.45,62,12.86,18.77,41.45-60.5,36.06-52.63a3.83,3.83,0,0,1,5.33-1Z"/><path class="cls-1" d="M27.75,276.44A7.58,7.58,0,0,1,25,273.11L.61,213.62A7.77,7.77,0,0,1,0,210.79a6.74,6.74,0,0,1,.56-2.67,7.8,7.8,0,0,1,1.55-2.39,7.35,7.35,0,0,1,9.39-1A7.49,7.49,0,0,1,14.33,208l17.61,43.05L49.55,208a7.16,7.16,0,0,1,2.72-3.31,7.3,7.3,0,0,1,4-1.19,7.21,7.21,0,0,1,5.28,2.22,8.18,8.18,0,0,1,1.47,2.33,6.88,6.88,0,0,1,.53,2.61,8.63,8.63,0,0,1-.61,3L38.94,272.44a2.49,2.49,0,0,1-.5,1.11,6.91,6.91,0,0,1-2.7,3,7.47,7.47,0,0,1-3.8,1.11h-.28A6.77,6.77,0,0,1,27.75,276.44Z"/><path class="cls-1" d="M77.15,275.5A27.49,27.49,0,0,1,62.46,261a25.93,25.93,0,0,1-2.14-10.41A26.47,26.47,0,0,1,62.46,240a27.9,27.9,0,0,1,5.92-8.75,27.45,27.45,0,0,1,8.75-5.8,27.5,27.5,0,0,1,20.91,0,27.77,27.77,0,0,1,8.72,5.72,28.24,28.24,0,0,1,5.89,8.64,26.8,26.8,0,0,1,2.27,10.36,6.67,6.67,0,0,1-2,5.08,7.33,7.33,0,0,1-5.25,1.92H76.82a13.72,13.72,0,0,0,4.67,4.55,11.92,11.92,0,0,0,6.16,1.67,13.89,13.89,0,0,0,3.39-.34,8.93,8.93,0,0,0,2.44-1,8,8,0,0,1,4.28-1.34,6.9,6.9,0,0,1,5.17,2.28,8.18,8.18,0,0,1,1.5,2.44,7.73,7.73,0,0,1,.55,2.89,6.5,6.5,0,0,1-1.08,3.61,9.2,9.2,0,0,1-3.19,2.89q-4.84,2.78-13.06,2.78A26.9,26.9,0,0,1,77.15,275.5Zm22.61-30.66a12.21,12.21,0,0,0-4.69-5.36,13.11,13.11,0,0,0-7.14-2,12.34,12.34,0,0,0-7,2,12.72,12.72,0,0,0-4.55,5.34Z"/><path class="cls-1" d="M137.84,275.55A27,27,0,0,1,123.31,261a26.51,26.51,0,0,1-2.11-10.47V214.62a7.57,7.57,0,0,1,.58-2.89,7.65,7.65,0,0,1,1.64-2.44,7.55,7.55,0,0,1,2.36-1.59,7.17,7.17,0,0,1,2.86-.58,7.57,7.57,0,0,1,2.92.58,7.94,7.94,0,0,1,2.47,1.59,8.36,8.36,0,0,1,1.7,2.44,7,7,0,0,1,.64,2.89v7.11h17a7.17,7.17,0,0,1,2.86.58,7.19,7.19,0,0,1,4,4,7.17,7.17,0,0,1,.58,2.86,6.62,6.62,0,0,1-2.17,5,7.57,7.57,0,0,1-5.27,2.11h-17v14.39a12.88,12.88,0,0,0,.88,4.75,12.11,12.11,0,0,0,6.39,6.55,11.9,11.9,0,0,0,4.67.92,10.86,10.86,0,0,0,7.66-2.61,8.14,8.14,0,0,1,5.61-2.5,6.22,6.22,0,0,1,2.48.53,6.16,6.16,0,0,1,2.13,1.47,6.92,6.92,0,0,1,2.06,4.89,8.6,8.6,0,0,1-.7,3.38,9,9,0,0,1-2,2.95,22.72,22.72,0,0,1-7.83,5,27.33,27.33,0,0,1-19.91-.45Z"/><path class="cls-2" d="M179,275.5a7.38,7.38,0,0,1-1.58-2.34,7,7,0,0,1-.59-2.83V210.79a7.12,7.12,0,0,1,2.17-5.23,7.67,7.67,0,0,1,10.44,0,7.12,7.12,0,0,1,2.17,5.23V235h25.55V210.79a6.71,6.71,0,0,1,.61-2.84,8.18,8.18,0,0,1,1.67-2.39,7.8,7.8,0,0,1,2.36-1.5,7.47,7.47,0,0,1,2.86-.55,7,7,0,0,1,7.27,7.28v59.54a7,7,0,0,1-.58,2.83,7.73,7.73,0,0,1-1.58,2.34,7.13,7.13,0,0,1-5.22,2.11,7.48,7.48,0,0,1-2.86-.56,7.07,7.07,0,0,1-2.36-1.55,7.58,7.58,0,0,1-1.59-2.34,7,7,0,0,1-.58-2.83v-20.5H191.58v20.5a7,7,0,0,1-.59,2.83,7.38,7.38,0,0,1-1.58,2.34,7.51,7.51,0,0,1-10.44,0Z"/><path class="cls-2" d="M258.43,275.52a27,27,0,0,1-8.7-5.86,26.74,26.74,0,0,1-5.88-8.66,27,27,0,0,1,0-20.91,27.39,27.39,0,0,1,14.58-14.61,26.89,26.89,0,0,1,29.41,5.75A27.26,27.26,0,0,1,296,250.11v19.94a7.26,7.26,0,0,1-2.17,5.34,7.46,7.46,0,0,1-2.44,1.63,7.54,7.54,0,0,1-2.95.59,7.1,7.1,0,0,1-3.63-.92,7.19,7.19,0,0,1-2.59-2.58,27,27,0,0,1-13.33,3.5A26.37,26.37,0,0,1,258.43,275.52Zm15.19-13.69a12,12,0,0,0,3.94-2.61,12.38,12.38,0,0,0,2.67-3.94,12.32,12.32,0,0,0,0-9.44,12.42,12.42,0,0,0-2.67-4,12,12,0,0,0-3.94-2.61,12.35,12.35,0,0,0-4.78-.94,12,12,0,0,0-4.69.94,12.12,12.12,0,0,0-3.92,2.61,12.82,12.82,0,0,0-2.69,4,12,12,0,0,0,0,9.44,12.78,12.78,0,0,0,2.69,3.94,12.12,12.12,0,0,0,3.92,2.61,12,12,0,0,0,4.69.95A12.35,12.35,0,0,0,273.62,261.83Z"/><path class="cls-2" d="M308.84,276.44a7.79,7.79,0,0,1-2.45-1.55,6.73,6.73,0,0,1-2.28-5.11v-20a25.75,25.75,0,0,1,2.06-10.17,26.76,26.76,0,0,1,14.16-14.19,25.67,25.67,0,0,1,10.11-2,26.84,26.84,0,0,1,10.31,2,27.3,27.3,0,0,1,8.69,5.7,26.89,26.89,0,0,1,5.92,8.49,25,25,0,0,1,2.13,10.17v20a6.94,6.94,0,0,1-2.05,5.11,7.3,7.3,0,0,1-5.17,2.11,7.62,7.62,0,0,1-2.91-.56,7.07,7.07,0,0,1-2.36-1.55,6.7,6.7,0,0,1-2.23-5.11V249.83a10.93,10.93,0,0,0-1-4.47,11.83,11.83,0,0,0-2.78-3.75,12.76,12.76,0,0,0-3.94-2.5,12.2,12.2,0,0,0-4.56-.88,11.55,11.55,0,0,0-4.44.86,10.72,10.72,0,0,0-3.61,2.36,11.66,11.66,0,0,0-2.47,3.64,11.38,11.38,0,0,0-1,4.41v20.28a6.74,6.74,0,0,1-2.12,5.11,7,7,0,0,1-5.11,2.11A7.69,7.69,0,0,1,308.84,276.44Z"/><path class="cls-2" d="M381.57,275.52a27.09,27.09,0,0,1-8.69-5.86A26.77,26.77,0,0,1,367,261a27,27,0,0,1,0-20.91,27.48,27.48,0,0,1,14.58-14.61A26.41,26.41,0,0,1,392,223.4a20.64,20.64,0,0,1,7.58,1.16,11,11,0,0,1,4.75,3.56V211.34a7.67,7.67,0,0,1,2.11-5.5,6.89,6.89,0,0,1,5.22-2.16,7.39,7.39,0,0,1,2.89.58,7.49,7.49,0,0,1,2.39,1.58,8,8,0,0,1,1.58,2.47,7.9,7.9,0,0,1,.59,3v39.22A26.41,26.41,0,0,1,417,261a27.32,27.32,0,0,1-14.55,14.53,27,27,0,0,1-20.89,0Zm15.2-13.69a12.1,12.1,0,0,0,3.94-2.61,12.38,12.38,0,0,0,2.67-3.94,12.32,12.32,0,0,0,0-9.44,12.42,12.42,0,0,0-2.67-4,12.1,12.1,0,0,0-3.94-2.61,12.38,12.38,0,0,0-4.78-.94,12,12,0,0,0-4.7.94,12.19,12.19,0,0,0-3.91,2.61,12.65,12.65,0,0,0-2.69,4,11.86,11.86,0,0,0,0,9.44,12.61,12.61,0,0,0,2.69,3.94,12.19,12.19,0,0,0,3.91,2.61,12,12,0,0,0,4.7.95A12.39,12.39,0,0,0,396.77,261.83Z"/></svg>